var midterm = [[{"channel":0,"velocity":64,"startBeat":0,"duration":12,"midi":69},{"channel":0,"velocity":64,"startBeat":12,"duration":2,"midi":70},{"channel":0,"velocity":64,"startBeat":14,"duration":2,"midi":69},{"channel":0,"velocity":64,"startBeat":16,"duration":4,"midi":69},{"channel":0,"velocity":64,"startBeat":20,"duration":2,"midi":67},{"channel":0,"velocity":64,"startBeat":22,"duration":2,"midi":66},{"channel":0,"velocity":64,"startBeat":24,"duration":6,"midi":69},{"channel":0,"velocity":64,"startBeat":30,"duration":2,"midi":67},{"channel":0,"velocity":64,"startBeat":32,"duration":4,"midi":64},{"channel":0,"velocity":64,"startBeat":36,"duration":4,"midi":65},{"channel":0,"velocity":64,"startBeat":40,"duration":4,"midi":67},{"channel":0,"velocity":64,"startBeat":44,"duration":4,"midi":72},{"channel":0,"velocity":64,"startBeat":48,"duration":8,"midi":67},{"channel":0,"velocity":64,"startBeat":56,"duration":6,"midi":65},{"channel":0,"velocity":64,"startBeat":64,"duration":12,"midi":70},{"channel":0,"velocity":64,"startBeat":76,"duration":2,"midi":72},{"channel":0,"velocity":64,"startBeat":78,"duration":2,"midi":70},{"channel":0,"velocity":64,"startBeat":80,"duration":4,"midi":73},{"channel":0,"velocity":64,"startBeat":84,"duration":2,"midi":72},{"channel":0,"velocity":64,"startBeat":86,"duration":2,"midi":70},{"channel":0,"velocity":64,"startBeat":88,"duration":6,"midi":69},{"channel":0,"velocity":64,"startBeat":94,"duration":2,"midi":72},{"channel":0,"velocity":64,"startBeat":96,"duration":8,"midi":69},{"channel":0,"velocity":64,"startBeat":136,"duration":8,"midi":69},{"channel":0,"velocity":64,"startBeat":144,"duration":4,"midi":65},{"channel":0,"velocity":64,"startBeat":148,"duration":4,"midi":64},{"channel":0,"velocity":64,"startBeat":152,"duration":6,"midi":65},{"channel":0,"velocity":64,"startBeat":158,"duration":2,"midi":67},{"channel":0,"velocity":64,"startBeat":160,"duration":4,"midi":60},{"channel":0,"velocity":64,"startBeat":164,"duration":4,"midi":61},{"channel":0,"velocity":64,"startBeat":168,"duration":8,"midi":64},{"channel":0,"velocity":80,"startBeat":180,"duration":2,"midi":76},{"channel":0,"velocity":64,"startBeat":182,"duration":2,"midi":74},{"channel":0,"velocity":80,"startBeat":184,"duration":2,"midi":76},{"channel":0,"velocity":64,"startBeat":186,"duration":2,"midi":72},{"channel":0,"velocity":64,"startBeat":188,"duration":2,"midi":69},{"channel":0,"velocity":64,"startBeat":190,"duration":2,"midi":65},{"channel":0,"velocity":64,"startBeat":192,"duration":4,"midi":62},{"channel":0,"velocity":64,"startBeat":196,"duration":2,"midi":64},{"channel":0,"velocity":64,"startBeat":198,"duration":2,"midi":60},{"channel":0,"velocity":64,"startBeat":200,"duration":8,"midi":62},{"channel":0,"velocity":64,"startBeat":208,"duration":8,"midi":65},{"channel":0,"velocity":64,"startBeat":216,"duration":8,"midi":65},{"channel":0,"velocity":64,"startBeat":228,"duration":1.6015625,"midi":69},{"channel":0,"velocity":64,"startBeat":232,"duration":8,"midi":65},{"channel":0,"velocity":64,"startBeat":244,"duration":0.640625,"midi":72},{"channel":0,"velocity":64,"startBeat":248,"duration":8,"midi":69},{"channel":0,"velocity":110,"startBeat":258.66796875,"duration":5.33203125,"midi":74},{"channel":0,"velocity":110,"startBeat":264,"duration":4,"midi":69},{"channel":0,"velocity":88,"startBeat":274.66796875,"duration":2.6640625,"midi":73},{"channel":0,"velocity":88,"startBeat":277.33203125,"duration":2.66796875,"midi":72},{"channel":0,"velocity":88,"startBeat":280,"duration":4,"midi":70},{"channel":0,"velocity":88,"startBeat":284,"duration":2.66796875,"midi":72},{"channel":0,"velocity":88,"startBeat":286.66796875,"duration":17.33203125,"midi":67},{"channel":0,"velocity":110,"startBeat":322.66796875,"duration":5.33203125,"midi":75},{"channel":0,"velocity":88,"startBeat":328,"duration":4,"midi":71},{"channel":0,"velocity":88,"startBeat":338.66796875,"duration":2.6640625,"midi":74},{"channel":0,"velocity":88,"startBeat":341.33203125,"duration":2.66796875,"midi":72},{"channel":0,"velocity":88,"startBeat":344,"duration":4,"midi":70},{"channel":0,"velocity":88,"startBeat":348,"duration":2.66796875,"midi":68},{"channel":0,"velocity":88,"startBeat":350.66796875,"duration":9.33203125,"midi":70},{"channel":0,"velocity":88,"startBeat":362,"duration":2,"midi":67},{"channel":0,"velocity":88,"startBeat":364,"duration":2,"midi":68},{"channel":0,"velocity":88,"startBeat":366,"duration":2,"midi":71},{"channel":0,"velocity":88,"startBeat":368,"duration":8,"midi":65},{"channel":0,"velocity":88,"startBeat":376,"duration":8,"midi":63},{"channel":0,"velocity":88,"startBeat":384,"duration":12,"midi":67},{"channel":0,"velocity":88,"startBeat":396,"duration":2,"midi":68},{"channel":0,"velocity":88,"startBeat":398,"duration":2,"midi":67},{"channel":0,"velocity":88,"startBeat":400,"duration":4,"midi":67},{"channel":0,"velocity":88,"startBeat":404,"duration":2,"midi":65},{"channel":0,"velocity":88,"startBeat":406,"duration":2,"midi":64},{"channel":0,"velocity":88,"startBeat":408,"duration":6,"midi":67},{"channel":0,"velocity":88,"startBeat":414,"duration":2,"midi":65},{"channel":0,"velocity":88,"startBeat":416,"duration":4,"midi":62},{"channel":0,"velocity":88,"startBeat":420,"duration":4,"midi":63},{"channel":0,"velocity":88,"startBeat":424,"duration":4,"midi":65},{"channel":0,"velocity":88,"startBeat":428,"duration":4,"midi":70},{"channel":0,"velocity":88,"startBeat":432,"duration":8,"midi":65},{"channel":0,"velocity":88,"startBeat":440,"duration":8,"midi":63},{"channel":0,"velocity":88,"startBeat":448,"duration":12,"midi":68},{"channel":0,"velocity":88,"startBeat":460,"duration":2,"midi":70},{"channel":0,"velocity":88,"startBeat":462,"duration":2,"midi":68},{"channel":0,"velocity":88,"startBeat":464,"duration":4,"midi":71},{"channel":0,"velocity":88,"startBeat":468,"duration":2,"midi":70},{"channel":0,"velocity":88,"startBeat":470,"duration":2,"midi":68},{"channel":0,"velocity":88,"startBeat":472,"duration":6,"midi":67},{"channel":0,"velocity":88,"startBeat":478,"duration":2,"midi":70},{"channel":0,"velocity":88,"startBeat":480,"duration":6,"midi":67},{"channel":0,"velocity":88,"startBeat":486,"duration":2,"midi":66},{"channel":0,"velocity":88,"startBeat":488,"duration":8,"midi":65},{"channel":0,"velocity":88,"startBeat":498.66796875,"duration":2.6640625,"midi":65},{"channel":0,"velocity":88,"startBeat":501.33203125,"duration":2.66796875,"midi":68},{"channel":0,"velocity":88,"startBeat":504,"duration":6,"midi":72},{"channel":0,"velocity":88,"startBeat":510,"duration":2,"midi":70},{"channel":0,"velocity":88,"startBeat":512,"duration":16,"midi":72}],[{"channel":1,"velocity":64,"startBeat":0,"duration":16,"midi":64},{"channel":1,"velocity":64,"startBeat":16,"duration":4,"midi":65},{"channel":1,"velocity":64,"startBeat":20,"duration":4,"midi":64},{"channel":1,"velocity":64,"startBeat":24,"duration":6,"midi":65},{"channel":1,"velocity":64,"startBeat":30,"duration":2,"midi":64},{"channel":1,"velocity":64,"startBeat":32,"duration":8,"midi":61},{"channel":1,"velocity":64,"startBeat":40,"duration":8,"midi":64},{"channel":1,"velocity":64,"startBeat":48,"duration":8,"midi":64},{"channel":1,"velocity":64,"startBeat":56,"duration":6,"midi":62},{"channel":1,"velocity":64,"startBeat":64,"duration":16,"midi":65},{"channel":1,"velocity":64,"startBeat":80,"duration":8,"midi":65},{"channel":1,"velocity":64,"startBeat":88,"duration":8,"midi":65},{"channel":1,"velocity":64,"startBeat":96,"duration":8,"midi":64},{"channel":1,"velocity":64,"startBeat":104,"duration":8,"midi":63},{"channel":1,"velocity":64,"startBeat":112,"duration":8,"midi":62},{"channel":1,"velocity":64,"startBeat":120,"duration":8,"midi":61},{"channel":1,"velocity":80,"startBeat":132,"duration":12,"midi":64},{"channel":1,"velocity":64,"startBeat":144,"duration":4,"midi":65},{"channel":1,"velocity":64,"startBeat":148,"duration":4,"midi":64},{"channel":1,"velocity":64,"startBeat":152,"duration":6,"midi":65},{"channel":1,"velocity":64,"startBeat":158,"duration":2,"midi":67},{"channel":1,"velocity":64,"startBeat":160,"duration":4,"midi":60},{"channel":1,"velocity":64,"startBeat":164,"duration":4,"midi":61},{"channel":1,"velocity":64,"startBeat":168,"duration":8,"midi":64},{"channel":1,"velocity":64,"startBeat":176,"duration":4,"midi":64},{"channel":1,"velocity":80,"startBeat":180,"duration":2,"midi":65},{"channel":1,"velocity":64,"startBeat":182,"duration":2,"midi":69},{"channel":1,"velocity":80,"startBeat":184,"duration":2,"midi":72},{"channel":1,"velocity":64,"startBeat":186,"duration":2,"midi":69},{"channel":1,"velocity":64,"startBeat":188,"duration":2,"midi":65},{"channel":1,"velocity":64,"startBeat":190,"duration":2,"midi":62},{"channel":1,"velocity":64,"startBeat":192,"duration":4,"midi":62},{"channel":1,"velocity":64,"startBeat":196,"duration":2,"midi":64},{"channel":1,"velocity":64,"startBeat":198,"duration":2,"midi":60},{"channel":1,"velocity":64,"startBeat":200,"duration":8,"midi":62},{"channel":1,"velocity":64,"startBeat":208,"duration":8,"midi":65},{"channel":1,"velocity":64,"startBeat":216,"duration":8,"midi":65},{"channel":1,"velocity":64,"startBeat":228,"duration":1.6015625,"midi":69},{"channel":1,"velocity":64,"startBeat":232,"duration":8,"midi":65},{"channel":1,"velocity":64,"startBeat":244,"duration":0.640625,"midi":72},{"channel":1,"velocity":64,"startBeat":248,"duration":8,"midi":69},{"channel":1,"velocity":110,"startBeat":258,"duration":6,"midi":69},{"channel":1,"velocity":110,"startBeat":264,"duration":4,"midi":62},{"channel":1,"velocity":110,"startBeat":290,"duration":2,"midi":63},{"channel":1,"velocity":110,"startBeat":296,"duration":4,"midi":63},{"channel":1,"velocity":88,"startBeat":300,"duration":2,"midi":65},{"channel":1,"velocity":110,"startBeat":302,"duration":8,"midi":63},{"channel":1,"velocity":110,"startBeat":310,"duration":10,"midi":59},{"channel":1,"velocity":110,"startBeat":322,"duration":6,"midi":71},{"channel":1,"velocity":88,"startBeat":328,"duration":4,"midi":67},{"channel":1,"velocity":88,"startBeat":338.66796875,"duration":2.6640625,"midi":69},{"channel":1,"velocity":88,"startBeat":341.33203125,"duration":2.66796875,"midi":69},{"channel":1,"velocity":88,"startBeat":344,"duration":4,"midi":67},{"channel":1,"velocity":88,"startBeat":348,"duration":2,"midi":65},{"channel":1,"velocity":88,"startBeat":350,"duration":18,"midi":67},{"channel":1,"velocity":88,"startBeat":384,"duration":12,"midi":62},{"channel":1,"velocity":88,"startBeat":396,"duration":2,"midi":62},{"channel":1,"velocity":88,"startBeat":398,"duration":2,"midi":62},{"channel":1,"velocity":88,"startBeat":400,"duration":4,"midi":60},{"channel":1,"velocity":88,"startBeat":404,"duration":2,"midi":60},{"channel":1,"velocity":88,"startBeat":406,"duration":2,"midi":60},{"channel":1,"velocity":88,"startBeat":408,"duration":6,"midi":60},{"channel":1,"velocity":88,"startBeat":414,"duration":2,"midi":59},{"channel":1,"velocity":88,"startBeat":416,"duration":4,"midi":59},{"channel":1,"velocity":88,"startBeat":420,"duration":4,"midi":59},{"channel":1,"velocity":88,"startBeat":424,"duration":4,"midi":62},{"channel":1,"velocity":88,"startBeat":428,"duration":4,"midi":65},{"channel":1,"velocity":88,"startBeat":432,"duration":8,"midi":63},{"channel":1,"velocity":88,"startBeat":440,"duration":8,"midi":60},{"channel":1,"velocity":88,"startBeat":448,"duration":12,"midi":63},{"channel":1,"velocity":88,"startBeat":460,"duration":2,"midi":63},{"channel":1,"velocity":88,"startBeat":462,"duration":2,"midi":65},{"channel":1,"velocity":88,"startBeat":464,"duration":4,"midi":66},{"channel":1,"velocity":88,"startBeat":468,"duration":2,"midi":66},{"channel":1,"velocity":88,"startBeat":470,"duration":2,"midi":65},{"channel":1,"velocity":88,"startBeat":472,"duration":6,"midi":63},{"channel":1,"velocity":88,"startBeat":478,"duration":2,"midi":65},{"channel":1,"velocity":88,"startBeat":480,"duration":6,"midi":63},{"channel":1,"velocity":88,"startBeat":486,"duration":2,"midi":63},{"channel":1,"velocity":88,"startBeat":488,"duration":8,"midi":63},{"channel":1,"velocity":88,"startBeat":498.66796875,"duration":2.6640625,"midi":61},{"channel":1,"velocity":88,"startBeat":501.33203125,"duration":2.66796875,"midi":61},{"channel":1,"velocity":88,"startBeat":504,"duration":6,"midi":64},{"channel":1,"velocity":88,"startBeat":510,"duration":2,"midi":65},{"channel":1,"velocity":88,"startBeat":512,"duration":16,"midi":67}],[{"channel":2,"velocity":64,"startBeat":0,"duration":16,"midi":60},{"channel":2,"velocity":64,"startBeat":16,"duration":4,"midi":62},{"channel":2,"velocity":64,"startBeat":20,"duration":4,"midi":61},{"channel":2,"velocity":64,"startBeat":24,"duration":8,"midi":62},{"channel":2,"velocity":64,"startBeat":32,"duration":16,"midi":61},{"channel":2,"velocity":64,"startBeat":48,"duration":12,"midi":60},{"channel":2,"velocity":64,"startBeat":64,"duration":16,"midi":62},{"channel":2,"velocity":64,"startBeat":80,"duration":16,"midi":61},{"channel":2,"velocity":64,"startBeat":96,"duration":8,"midi":60},{"channel":2,"velocity":64,"startBeat":104,"duration":8,"midi":59},{"channel":2,"velocity":64,"startBeat":112,"duration":16,"midi":58},{"channel":2,"velocity":64,"startBeat":128,"duration":12,"midi":60},{"channel":2,"velocity":64,"startBeat":144,"duration":4,"midi":57},{"channel":2,"velocity":64,"startBeat":148,"duration":2,"midi":55},{"channel":2,"velocity":64,"startBeat":150,"duration":2,"midi":54},{"channel":2,"velocity":64,"startBeat":152,"duration":6,"midi":57},{"channel":2,"velocity":64,"startBeat":158,"duration":2,"midi":55},{"channel":2,"velocity":64,"startBeat":160,"duration":4,"midi":52},{"channel":2,"velocity":64,"startBeat":164,"duration":4,"midi":53},{"channel":2,"velocity":64,"startBeat":168,"duration":4,"midi":55},{"channel":2,"velocity":64,"startBeat":172,"duration":2,"midi":60},{"channel":2,"velocity":64,"startBeat":174,"duration":2,"midi":57},{"channel":2,"velocity":64,"startBeat":176,"duration":8,"midi":55},{"channel":2,"velocity":64,"startBeat":184,"duration":8,"midi":53},{"channel":2,"velocity":64,"startBeat":192,"duration":12,"midi":58},{"channel":2,"velocity":64,"startBeat":204,"duration":2,"midi":60},{"channel":2,"velocity":64,"startBeat":206,"duration":2,"midi":58},{"channel":2,"velocity":64,"startBeat":208,"duration":4,"midi":61},{"channel":2,"velocity":64,"startBeat":212,"duration":2,"midi":60},{"channel":2,"velocity":64,"startBeat":214,"duration":2,"midi":58},{"channel":2,"velocity":64,"startBeat":216,"duration":6,"midi":57},{"channel":2,"velocity":64,"startBeat":222,"duration":2,"midi":60},{"channel":2,"velocity":64,"startBeat":224,"duration":8,"midi":57},{"channel":2,"velocity":64,"startBeat":234,"duration":2,"midi":58},{"channel":2,"velocity":64,"startBeat":236,"duration":2,"midi":59},{"channel":2,"velocity":64,"startBeat":238,"duration":2,"midi":62},{"channel":2,"velocity":64,"startBeat":240,"duration":4,"midi":60},{"channel":2,"velocity":64,"startBeat":244,"duration":2,"midi":56},{"channel":2,"velocity":64,"startBeat":246,"duration":2,"midi":57},{"channel":2,"velocity":64,"startBeat":248,"duration":4,"midi":53},{"channel":2,"velocity":64,"startBeat":252,"duration":4,"midi":50},{"channel":2,"velocity":110,"startBeat":258,"duration":6,"midi":65},{"channel":2,"velocity":110,"startBeat":264,"duration":4,"midi":58},{"channel":2,"velocity":88,"startBeat":274.66796875,"duration":2.6640625,"midi":61},{"channel":2,"velocity":88,"startBeat":277.33203125,"duration":2.66796875,"midi":60},{"channel":2,"velocity":88,"startBeat":280,"duration":4,"midi":58},{"channel":2,"velocity":88,"startBeat":284,"duration":2,"midi":60},{"channel":2,"velocity":88,"startBeat":286,"duration":18,"midi":55},{"channel":2,"velocity":110,"startBeat":322,"duration":6,"midi":67},{"channel":2,"velocity":88,"startBeat":328,"duration":4,"midi":63},{"channel":2,"velocity":88,"startBeat":338.66796875,"duration":2.6640625,"midi":67},{"channel":2,"velocity":88,"startBeat":341.33203125,"duration":2.66796875,"midi":67},{"channel":2,"velocity":88,"startBeat":344,"duration":4,"midi":63},{"channel":2,"velocity":88,"startBeat":348,"duration":2,"midi":63},{"channel":2,"velocity":88,"startBeat":350,"duration":18,"midi":63},{"channel":2,"velocity":88,"startBeat":384,"duration":12,"midi":58},{"channel":2,"velocity":88,"startBeat":396,"duration":2,"midi":58},{"channel":2,"velocity":88,"startBeat":398,"duration":2,"midi":58},{"channel":2,"velocity":88,"startBeat":400,"duration":4,"midi":56},{"channel":2,"velocity":88,"startBeat":404,"duration":2,"midi":56},{"channel":2,"velocity":88,"startBeat":406,"duration":2,"midi":55},{"channel":2,"velocity":88,"startBeat":408,"duration":6,"midi":58},{"channel":2,"velocity":88,"startBeat":414,"duration":2,"midi":56},{"channel":2,"velocity":88,"startBeat":416,"duration":4,"midi":57},{"channel":2,"velocity":88,"startBeat":420,"duration":4,"midi":56},{"channel":2,"velocity":88,"startBeat":424,"duration":4,"midi":59},{"channel":2,"velocity":88,"startBeat":428,"duration":4,"midi":63},{"channel":2,"velocity":88,"startBeat":432,"duration":8,"midi":60},{"channel":2,"velocity":88,"startBeat":440,"duration":8,"midi":58},{"channel":2,"velocity":88,"startBeat":448,"duration":12,"midi":60},{"channel":2,"velocity":88,"startBeat":460,"duration":2,"midi":60},{"channel":2,"velocity":88,"startBeat":462,"duration":2,"midi":60},{"channel":2,"velocity":88,"startBeat":464,"duration":4,"midi":63},{"channel":2,"velocity":88,"startBeat":468,"duration":2,"midi":62},{"channel":2,"velocity":88,"startBeat":470,"duration":2,"midi":62},{"channel":2,"velocity":88,"startBeat":472,"duration":6,"midi":63},{"channel":2,"velocity":88,"startBeat":478,"duration":2,"midi":63},{"channel":2,"velocity":88,"startBeat":480,"duration":6,"midi":60},{"channel":2,"velocity":88,"startBeat":486,"duration":2,"midi":60},{"channel":2,"velocity":88,"startBeat":488,"duration":8,"midi":61},{"channel":2,"velocity":88,"startBeat":498.66796875,"duration":2.6640625,"midi":58},{"channel":2,"velocity":88,"startBeat":501.33203125,"duration":2.66796875,"midi":58},{"channel":2,"velocity":88,"startBeat":504,"duration":6,"midi":64},{"channel":2,"velocity":88,"startBeat":510,"duration":2,"midi":61},{"channel":2,"velocity":88,"startBeat":512,"duration":16,"midi":62}],[{"channel":3,"velocity":64,"startBeat":0,"duration":16,"midi":57},{"channel":3,"velocity":64,"startBeat":16,"duration":16,"midi":58},{"channel":3,"velocity":64,"startBeat":32,"duration":16,"midi":57},{"channel":3,"velocity":64,"startBeat":48,"duration":12,"midi":57},{"channel":3,"velocity":64,"startBeat":64,"duration":16,"midi":58},{"channel":3,"velocity":64,"startBeat":80,"duration":16,"midi":58},{"channel":3,"velocity":64,"startBeat":96,"duration":8,"midi":60},{"channel":3,"velocity":64,"startBeat":104,"duration":8,"midi":59},{"channel":3,"velocity":64,"startBeat":112,"duration":16,"midi":58},{"channel":3,"velocity":64,"startBeat":128,"duration":12,"midi":57},{"channel":3,"velocity":64,"startBeat":140,"duration":2,"midi":58},{"channel":3,"velocity":64,"startBeat":142,"duration":2,"midi":57},{"channel":3,"velocity":64,"startBeat":144,"duration":4,"midi":57},{"channel":3,"velocity":64,"startBeat":148,"duration":2,"midi":55},{"channel":3,"velocity":64,"startBeat":150,"duration":2,"midi":54},{"channel":3,"velocity":64,"startBeat":152,"duration":6,"midi":57},{"channel":3,"velocity":64,"startBeat":158,"duration":2,"midi":55},{"channel":3,"velocity":64,"startBeat":160,"duration":4,"midi":52},{"channel":3,"velocity":64,"startBeat":164,"duration":4,"midi":53},{"channel":3,"velocity":64,"startBeat":168,"duration":4,"midi":55},{"channel":3,"velocity":64,"startBeat":172,"duration":2,"midi":60},{"channel":3,"velocity":64,"startBeat":174,"duration":2,"midi":57},{"channel":3,"velocity":64,"startBeat":176,"duration":8,"midi":55},{"channel":3,"velocity":64,"startBeat":184,"duration":8,"midi":53},{"channel":3,"velocity":64,"startBeat":192,"duration":12,"midi":58},{"channel":3,"velocity":64,"startBeat":204,"duration":2,"midi":60},{"channel":3,"velocity":64,"startBeat":206,"duration":2,"midi":58},{"channel":3,"velocity":64,"startBeat":208,"duration":4,"midi":61},{"channel":3,"velocity":64,"startBeat":212,"duration":2,"midi":60},{"channel":3,"velocity":64,"startBeat":214,"duration":2,"midi":58},{"channel":3,"velocity":64,"startBeat":216,"duration":6,"midi":57},{"channel":3,"velocity":64,"startBeat":222,"duration":2,"midi":60},{"channel":3,"velocity":64,"startBeat":224,"duration":8,"midi":57},{"channel":3,"velocity":64,"startBeat":234,"duration":2,"midi":58},{"channel":3,"velocity":64,"startBeat":236,"duration":2,"midi":59},{"channel":3,"velocity":64,"startBeat":238,"duration":2,"midi":62},{"channel":3,"velocity":64,"startBeat":240,"duration":4,"midi":60},{"channel":3,"velocity":64,"startBeat":244,"duration":2,"midi":56},{"channel":3,"velocity":64,"startBeat":246,"duration":2,"midi":57},{"channel":3,"velocity":64,"startBeat":248,"duration":4,"midi":53},{"channel":3,"velocity":64,"startBeat":252,"duration":4,"midi":50},{"channel":3,"velocity":110,"startBeat":258,"duration":6,"midi":62},{"channel":3,"velocity":110,"startBeat":264,"duration":4,"midi":57},{"channel":3,"velocity":110,"startBeat":290,"duration":2,"midi":60},{"channel":3,"velocity":110,"startBeat":296,"duration":4,"midi":60},{"channel":3,"velocity":110,"startBeat":302,"duration":8,"midi":59},{"channel":3,"velocity":110,"startBeat":310,"duration":10,"midi":55},{"channel":3,"velocity":110,"startBeat":322,"duration":6,"midi":63},{"channel":3,"velocity":88,"startBeat":328,"duration":4,"midi":59},{"channel":3,"velocity":88,"startBeat":338.66796875,"duration":2.6640625,"midi":67},{"channel":3,"velocity":88,"startBeat":341.33203125,"duration":2.66796875,"midi":67},{"channel":3,"velocity":88,"startBeat":344,"duration":4,"midi":63},{"channel":3,"velocity":88,"startBeat":348,"duration":2,"midi":63},{"channel":3,"velocity":88,"startBeat":350,"duration":18,"midi":60},{"channel":3,"velocity":88,"startBeat":384,"duration":12,"midi":55},{"channel":3,"velocity":88,"startBeat":396,"duration":2,"midi":56},{"channel":3,"velocity":88,"startBeat":398,"duration":2,"midi":55},{"channel":3,"velocity":88,"startBeat":400,"duration":4,"midi":55},{"channel":3,"velocity":88,"startBeat":404,"duration":2,"midi":53},{"channel":3,"velocity":88,"startBeat":406,"duration":2,"midi":52},{"channel":3,"velocity":88,"startBeat":408,"duration":6,"midi":55},{"channel":3,"velocity":88,"startBeat":414,"duration":2,"midi":53},{"channel":3,"velocity":88,"startBeat":416,"duration":4,"midi":53},{"channel":3,"velocity":88,"startBeat":420,"duration":4,"midi":53},{"channel":3,"velocity":88,"startBeat":424,"duration":4,"midi":55},{"channel":3,"velocity":88,"startBeat":428,"duration":4,"midi":59},{"channel":3,"velocity":88,"startBeat":432,"duration":8,"midi":58},{"channel":3,"velocity":88,"startBeat":440,"duration":8,"midi":55},{"channel":3,"velocity":88,"startBeat":448,"duration":12,"midi":56},{"channel":3,"velocity":88,"startBeat":460,"duration":2,"midi":58},{"channel":3,"velocity":88,"startBeat":462,"duration":2,"midi":56},{"channel":3,"velocity":88,"startBeat":464,"duration":4,"midi":59},{"channel":3,"velocity":88,"startBeat":468,"duration":2,"midi":59},{"channel":3,"velocity":88,"startBeat":470,"duration":2,"midi":59},{"channel":3,"velocity":88,"startBeat":472,"duration":6,"midi":59},{"channel":3,"velocity":88,"startBeat":478,"duration":2,"midi":59},{"channel":3,"velocity":88,"startBeat":480,"duration":6,"midi":58},{"channel":3,"velocity":88,"startBeat":486,"duration":2,"midi":57},{"channel":3,"velocity":88,"startBeat":488,"duration":8,"midi":57},{"channel":3,"velocity":88,"startBeat":498.66796875,"duration":2.6640625,"midi":56},{"channel":3,"velocity":88,"startBeat":501.33203125,"duration":2.66796875,"midi":53},{"channel":3,"velocity":88,"startBeat":504,"duration":2,"midi":58},{"channel":3,"velocity":88,"startBeat":506,"duration":2,"midi":57},{"channel":3,"velocity":88,"startBeat":508,"duration":2,"midi":56},{"channel":3,"velocity":88,"startBeat":510,"duration":2,"midi":55},{"channel":3,"velocity":88,"startBeat":512,"duration":16,"midi":57}],[{"channel":4,"velocity":64,"startBeat":0,"duration":24,"midi":53},{"channel":4,"velocity":64,"startBeat":24,"duration":8,"midi":53},{"channel":4,"velocity":64,"startBeat":32,"duration":8,"midi":55},{"channel":4,"velocity":64,"startBeat":40,"duration":8,"midi":55},{"channel":4,"velocity":64,"startBeat":48,"duration":12,"midi":53},{"channel":4,"velocity":64,"startBeat":64,"duration":16,"midi":55},{"channel":4,"velocity":64,"startBeat":80,"duration":8,"midi":56},{"channel":4,"velocity":64,"startBeat":88,"duration":8,"midi":55},{"channel":4,"velocity":64,"startBeat":106,"duration":2,"midi":50},{"channel":4,"velocity":64,"startBeat":108,"duration":2,"midi":53},{"channel":4,"velocity":64,"startBeat":110,"duration":2,"midi":55},{"channel":4,"velocity":64,"startBeat":112,"duration":4,"midi":53},{"channel":4,"velocity":64,"startBeat":116,"duration":1.33203125,"midi":50},{"channel":4,"velocity":64,"startBeat":117.33203125,"duration":1.3359375,"midi":53},{"channel":4,"velocity":64,"startBeat":118.66796875,"duration":1.33203125,"midi":55},{"channel":4,"velocity":64,"startBeat":120,"duration":4,"midi":56},{"channel":4,"velocity":64,"startBeat":124,"duration":4,"midi":60},{"channel":4,"velocity":64,"startBeat":128,"duration":12,"midi":57},{"channel":4,"velocity":64,"startBeat":140,"duration":2,"midi":58},{"channel":4,"velocity":64,"startBeat":142,"duration":2,"midi":57},{"channel":4,"velocity":64,"startBeat":144,"duration":4,"midi":57},{"channel":4,"velocity":64,"startBeat":148,"duration":2,"midi":55},{"channel":4,"velocity":64,"startBeat":150,"duration":2,"midi":54},{"channel":4,"velocity":64,"startBeat":152,"duration":6,"midi":57},{"channel":4,"velocity":64,"startBeat":158,"duration":2,"midi":55},{"channel":4,"velocity":64,"startBeat":160,"duration":4,"midi":52},{"channel":4,"velocity":64,"startBeat":164,"duration":4,"midi":53},{"channel":4,"velocity":64,"startBeat":168,"duration":4,"midi":55},{"channel":4,"velocity":64,"startBeat":172,"duration":2,"midi":60},{"channel":4,"velocity":64,"startBeat":174,"duration":2,"midi":57},{"channel":4,"velocity":64,"startBeat":176,"duration":8,"midi":55},{"channel":4,"velocity":64,"startBeat":184,"duration":8,"midi":53},{"channel":4,"velocity":64,"startBeat":192,"duration":12,"midi":58},{"channel":4,"velocity":64,"startBeat":204,"duration":2,"midi":60},{"channel":4,"velocity":64,"startBeat":206,"duration":2,"midi":58},{"channel":4,"velocity":64,"startBeat":208,"duration":4,"midi":61},{"channel":4,"velocity":64,"startBeat":212,"duration":2,"midi":60},{"channel":4,"velocity":64,"startBeat":214,"duration":2,"midi":58},{"channel":4,"velocity":64,"startBeat":216,"duration":6,"midi":57},{"channel":4,"velocity":64,"startBeat":222,"duration":2,"midi":60},{"channel":4,"velocity":64,"startBeat":224,"duration":8,"midi":57},{"channel":4,"velocity":64,"startBeat":234,"duration":2,"midi":58},{"channel":4,"velocity":64,"startBeat":236,"duration":2,"midi":59},{"channel":4,"velocity":64,"startBeat":238,"duration":2,"midi":62},{"channel":4,"velocity":64,"startBeat":240,"duration":4,"midi":60},{"channel":4,"velocity":64,"startBeat":244,"duration":2,"midi":56},{"channel":4,"velocity":64,"startBeat":246,"duration":2,"midi":57},{"channel":4,"velocity":64,"startBeat":248,"duration":4,"midi":53},{"channel":4,"velocity":64,"startBeat":252,"duration":4,"midi":50},{"channel":4,"velocity":110,"startBeat":258,"duration":6,"midi":58},{"channel":4,"velocity":110,"startBeat":264,"duration":4,"midi":53},{"channel":4,"velocity":110,"startBeat":290,"duration":2,"midi":55},{"channel":4,"velocity":110,"startBeat":296,"duration":4,"midi":55},{"channel":4,"velocity":110,"startBeat":302,"duration":8,"midi":53},{"channel":4,"velocity":110,"startBeat":310,"duration":10,"midi":49},{"channel":4,"velocity":110,"startBeat":322,"duration":6,"midi":63},{"channel":4,"velocity":88,"startBeat":328,"duration":4,"midi":59},{"channel":4,"velocity":88,"startBeat":338.66796875,"duration":2.6640625,"midi":63},{"channel":4,"velocity":88,"startBeat":341.33203125,"duration":2.66796875,"midi":63},{"channel":4,"velocity":88,"startBeat":344,"duration":4,"midi":60},{"channel":4,"velocity":88,"startBeat":348,"duration":2,"midi":60},{"channel":4,"velocity":88,"startBeat":350,"duration":18,"midi":56},{"channel":4,"velocity":88,"startBeat":384,"duration":12,"midi":51},{"channel":4,"velocity":88,"startBeat":396,"duration":2,"midi":52},{"channel":4,"velocity":88,"startBeat":398,"duration":2,"midi":51},{"channel":4,"velocity":88,"startBeat":400,"duration":4,"midi":51},{"channel":4,"velocity":88,"startBeat":404,"duration":2,"midi":50},{"channel":4,"velocity":88,"startBeat":406,"duration":2,"midi":49},{"channel":4,"velocity":88,"startBeat":408,"duration":6,"midi":51},{"channel":4,"velocity":88,"startBeat":414,"duration":2,"midi":50},{"channel":4,"velocity":88,"startBeat":416,"duration":4,"midi":50},{"channel":4,"velocity":88,"startBeat":420,"duration":4,"midi":51},{"channel":4,"velocity":88,"startBeat":424,"duration":4,"midi":53},{"channel":4,"velocity":88,"startBeat":428,"duration":4,"midi":55},{"channel":4,"velocity":88,"startBeat":432,"duration":8,"midi":55},{"channel":4,"velocity":88,"startBeat":440,"duration":8,"midi":48},{"channel":4,"velocity":88,"startBeat":448,"duration":12,"midi":53},{"channel":4,"velocity":88,"startBeat":460,"duration":2,"midi":55},{"channel":4,"velocity":88,"startBeat":462,"duration":2,"midi":56},{"channel":4,"velocity":88,"startBeat":464,"duration":4,"midi":56},{"channel":4,"velocity":88,"startBeat":468,"duration":2,"midi":56},{"channel":4,"velocity":88,"startBeat":470,"duration":2,"midi":56},{"channel":4,"velocity":88,"startBeat":472,"duration":6,"midi":53},{"channel":4,"velocity":88,"startBeat":478,"duration":2,"midi":59},{"channel":4,"velocity":88,"startBeat":480,"duration":6,"midi":58},{"channel":4,"velocity":88,"startBeat":486,"duration":2,"midi":57},{"channel":4,"velocity":88,"startBeat":488,"duration":8,"midi":57},{"channel":4,"velocity":88,"startBeat":498.66796875,"duration":2.6640625,"midi":56},{"channel":4,"velocity":88,"startBeat":501.33203125,"duration":2.66796875,"midi":53},{"channel":4,"velocity":88,"startBeat":504,"duration":2,"midi":58},{"channel":4,"velocity":88,"startBeat":506,"duration":2,"midi":57},{"channel":4,"velocity":88,"startBeat":508,"duration":2,"midi":56},{"channel":4,"velocity":88,"startBeat":510,"duration":2,"midi":55},{"channel":4,"velocity":88,"startBeat":512,"duration":16,"midi":57}]]